<?xml version="1.0" encoding="UTF-8"?>
<!DOCTYPE svg PUBLIC "-//W3C//DTD SVG 1.1//EN" "http://www.w3.org/Graphics/SVG/1.1/DTD/svg11.dtd">
<svg xmlns="http://www.w3.org/2000/svg" version="1.1" width="512px" height="512px" style="shape-rendering:geometricPrecision; text-rendering:geometricPrecision; image-rendering:optimizeQuality; fill-rule:evenodd; clip-rule:evenodd" xmlns:xlink="http://www.w3.org/1999/xlink">
<g><path style="opacity:0.994" fill="#fea001" d="M 141.5,-0.5 C 153.5,-0.5 165.5,-0.5 177.5,-0.5C 237.575,8.7478 280.742,40.7478 307,95.5C 314.158,112.466 318.325,130.133 319.5,148.5C 263.611,153.692 218.444,178.358 184,222.5C 179.416,229.332 175.083,236.332 171,243.5C 170.617,242.944 170.117,242.611 169.5,242.5C 168.817,238.98 166.817,236.48 163.5,235C 146.805,235.322 131.471,230.988 117.5,222C 107.812,214.12 104.145,203.954 106.5,191.5C 132.169,191.667 157.835,191.5 183.5,191C 190.723,188.006 192.89,182.839 190,175.5C 188.457,173.622 186.624,172.122 184.5,171C 158.502,170.5 132.502,170.333 106.5,170.5C 106.5,163.167 106.5,155.833 106.5,148.5C 132.502,148.667 158.502,148.5 184.5,148C 190.905,144.452 192.738,139.286 190,132.5C 188.363,130.19 186.196,128.69 183.5,128C 157.835,127.5 132.169,127.333 106.5,127.5C 103.569,114.877 107.236,104.71 117.5,97C 144.066,81.0809 171.066,80.4142 198.5,95C 208.278,101.117 213.445,109.95 214,121.5C 219.231,128.592 225.231,129.259 232,123.5C 235.109,106.186 229.609,92.0189 215.5,81C 192.694,65.9165 167.694,60.5832 140.5,65C 118.382,68.794 101.215,79.9607 89,98.5C 84.9924,107.746 83.4924,117.412 84.5,127.5C 79.8215,127.334 75.1548,127.501 70.5,128C 61.5084,134.127 61.175,140.793 69.5,148C 74.4889,148.499 79.4889,148.666 84.5,148.5C 84.5,155.833 84.5,163.167 84.5,170.5C 79.4889,170.334 74.4889,170.501 69.5,171C 61.888,176.989 61.5547,183.322 68.5,190C 73.7081,191.397 79.0414,191.897 84.5,191.5C 82.9664,217.94 94.2997,236.44 118.5,247C 133.621,253.994 149.288,256.161 165.5,253.5C 156.054,274.618 150.388,296.618 148.5,319.5C 84.899,312.972 39.399,280.972 12,223.5C 5.93076,208.545 1.76409,193.212 -0.5,177.5C -0.5,165.5 -0.5,153.5 -0.5,141.5C 13.8333,61.1667 61.1667,13.8333 141.5,-0.5 Z"/></g>
<g><path style="opacity:0.979" fill="#455963" d="M 347.5,20.5 C 396.333,22.1989 432.167,44.5323 455,87.5C 457.529,93.4213 459.863,99.4213 462,105.5C 464.993,98.845 468.493,92.5116 472.5,86.5C 480.019,82.6574 485.852,84.3241 490,91.5C 490.667,94.1667 490.667,96.8333 490,99.5C 482.216,115.568 474.05,131.402 465.5,147C 461.361,149.856 457.028,150.19 452.5,148C 437.098,140.55 421.931,132.716 407,124.5C 402.289,116.214 404.122,110.048 412.5,106C 415.594,105.348 418.594,105.682 421.5,107C 427.833,110.167 434.167,113.333 440.5,116.5C 431.632,81.7859 409.966,58.6192 375.5,47C 365.567,44.5106 355.567,42.5106 345.5,41C 338.391,33.376 339.058,26.5427 347.5,20.5 Z"/></g>
<g><path style="opacity:1" fill="#eceeef" d="M 169.5,242.5 C 170.343,247.094 169.009,250.761 165.5,253.5C 149.288,256.161 133.621,253.994 118.5,247C 94.2997,236.44 82.9664,217.94 84.5,191.5C 79.0414,191.897 73.7081,191.397 68.5,190C 61.5547,183.322 61.888,176.989 69.5,171C 74.4889,170.501 79.4889,170.334 84.5,170.5C 84.5,163.167 84.5,155.833 84.5,148.5C 79.4889,148.666 74.4889,148.499 69.5,148C 61.175,140.793 61.5084,134.127 70.5,128C 75.1548,127.501 79.8215,127.334 84.5,127.5C 83.4924,117.412 84.9924,107.746 89,98.5C 101.215,79.9607 118.382,68.794 140.5,65C 167.694,60.5832 192.694,65.9165 215.5,81C 229.609,92.0189 235.109,106.186 232,123.5C 225.231,129.259 219.231,128.592 214,121.5C 213.445,109.95 208.278,101.117 198.5,95C 171.066,80.4142 144.066,81.0809 117.5,97C 107.236,104.71 103.569,114.877 106.5,127.5C 132.169,127.333 157.835,127.5 183.5,128C 186.196,128.69 188.363,130.19 190,132.5C 192.738,139.286 190.905,144.452 184.5,148C 158.502,148.5 132.502,148.667 106.5,148.5C 106.5,155.833 106.5,163.167 106.5,170.5C 132.502,170.333 158.502,170.5 184.5,171C 186.624,172.122 188.457,173.622 190,175.5C 192.89,182.839 190.723,188.006 183.5,191C 157.835,191.5 132.169,191.667 106.5,191.5C 104.145,203.954 107.812,214.12 117.5,222C 131.471,230.988 146.805,235.322 163.5,235C 166.817,236.48 168.817,238.98 169.5,242.5 Z"/></g>
<g><path style="opacity:0.998" fill="#ffc108" d="M 319.5,148.5 C 401.818,147.738 460.985,184.072 497,257.5C 504.361,274.951 509.194,292.951 511.5,311.5C 511.5,324.167 511.5,336.833 511.5,349.5C 501.869,416.96 466.536,465.793 405.5,496C 387.397,503.689 368.73,508.856 349.5,511.5C 336.5,511.5 323.5,511.5 310.5,511.5C 252.32,503.169 207.153,474.503 175,425.5C 155.509,392.87 146.676,357.537 148.5,319.5C 150.388,296.618 156.054,274.618 165.5,253.5C 169.009,250.761 170.343,247.094 169.5,242.5C 170.117,242.611 170.617,242.944 171,243.5C 175.083,236.332 179.416,229.332 184,222.5C 218.444,178.358 263.611,153.692 319.5,148.5 Z"/></g>
<g><path style="opacity:1" fill="#faf9f8" d="M 340.5,221.5 C 339.897,226.619 340.564,231.285 342.5,235.5C 363.315,237.041 380.815,245.374 395,260.5C 402.46,269.546 405.46,279.88 404,291.5C 397.989,300.312 391.656,300.645 385,292.5C 383.211,276.699 374.711,266.199 359.5,261C 353.329,258.707 346.995,257.207 340.5,256.5C 340.5,277.833 340.5,299.167 340.5,320.5C 363.37,322.019 382.203,331.352 397,348.5C 409.982,371.757 406.149,391.924 385.5,409C 372.301,418.289 357.635,423.623 341.5,425C 340.693,430.083 340.193,435.25 340,440.5C 334.434,448.818 328.101,449.485 321,442.5C 319.649,436.928 319.149,431.262 319.5,425.5C 298.505,423.75 280.672,415.417 266,400.5C 257.835,390.834 254.835,379.834 257,367.5C 260.298,362.78 264.798,361.28 270.5,363C 275.704,365.936 277.87,370.436 277,376.5C 281.141,387.308 288.641,394.808 299.5,399C 305.888,401.854 312.555,403.354 319.5,403.5C 319.5,382.167 319.5,360.833 319.5,339.5C 296.927,338.602 278.427,329.602 264,312.5C 249.432,286.351 254.599,264.851 279.5,248C 291.832,240.5 305.166,236.333 319.5,235.5C 319.334,230.489 319.501,225.489 320,220.5C 322.73,213.947 327.563,211.78 334.5,214C 337.817,215.48 339.817,217.98 340.5,221.5 Z"/></g>
<g><path style="opacity:1" fill="#fdd45a" d="M 340.5,221.5 C 341.216,226.064 341.883,230.731 342.5,235.5C 340.564,231.285 339.897,226.619 340.5,221.5 Z"/></g>
<g><path style="opacity:1" fill="#ffc10d" d="M 313.5,256.5 C 315.5,256.5 317.5,256.5 319.5,256.5C 319.5,277.167 319.5,297.833 319.5,318.5C 303.49,317.245 290.323,310.579 280,298.5C 274.271,287.003 276.437,277.169 286.5,269C 294.831,263.165 303.831,258.998 313.5,256.5 Z"/></g>
<g><path style="opacity:1" fill="#fdd45b" d="M 341.5,341.5 C 340.845,362.527 341.512,383.194 343.5,403.5C 342.791,404.404 341.791,404.737 340.5,404.5C 340.169,383.327 340.503,362.327 341.5,341.5 Z"/></g>
<g><path style="opacity:1" fill="#ffc10b" d="M 341.5,341.5 C 353.162,343.219 363.829,347.386 373.5,354C 387.21,367.64 386.544,380.64 371.5,393C 362.952,398.572 353.618,402.072 343.5,403.5C 341.512,383.194 340.845,362.527 341.5,341.5 Z"/></g>
<g><path style="opacity:0.981" fill="#455963" d="M 50.5,361.5 C 53.2706,361.421 55.9373,361.921 58.5,363C 73.9019,370.45 89.0686,378.284 104,386.5C 108.712,394.742 106.879,400.909 98.5,405C 95.406,405.652 92.406,405.318 89.5,404C 83.1667,400.833 76.8333,397.667 70.5,394.5C 79.3676,429.214 101.034,452.381 135.5,464C 145.458,466.373 155.458,468.373 165.5,470C 172.167,476.333 172.167,482.667 165.5,489C 115.658,489.656 79.1579,467.822 56,423.5C 53.4706,417.579 51.1372,411.579 49,405.5C 46.0487,412.577 42.2154,419.077 37.5,425C 25.2661,428.64 19.7661,424.14 21,411.5C 28.6667,396.167 36.3333,380.833 44,365.5C 46.0129,363.752 48.1795,362.418 50.5,361.5 Z"/></g>
</svg>
